<svg width="24" height="24" viewBox="0 0 24 24" fill="none" xmlns="http://www.w3.org/2000/svg">
<g id="formkit:add">
<path id="Vector" d="M11.9999 22.0023C6.33801 22.0023 1.73218 17.3965 1.73218 11.7346C1.73218 6.07263 6.33801 1.4668 11.9999 1.4668C17.6619 1.4668 22.2677 6.07263 22.2677 11.7346C22.2677 17.3965 17.6619 22.0023 11.9999 22.0023ZM11.9999 2.93362C7.14476 2.93362 3.199 6.87938 3.199 11.7346C3.199 16.5898 7.14476 20.5355 11.9999 20.5355C16.8551 20.5355 20.8009 16.5898 20.8009 11.7346C20.8009 6.87938 16.8551 2.93362 11.9999 2.93362Z" fill="black"/>
<path id="Vector_2" d="M12 16.8684C11.5893 16.8684 11.2666 16.5457 11.2666 16.1349V7.334C11.2666 6.92329 11.5893 6.60059 12 6.60059C12.4107 6.60059 12.7334 6.92329 12.7334 7.334V16.1349C12.7334 16.5457 12.4107 16.8684 12 16.8684Z" fill="black"/>
<path id="Vector_3" d="M16.4006 12.4678H7.59962C7.18891 12.4678 6.86621 12.1451 6.86621 11.7344C6.86621 11.3237 7.18891 11.001 7.59962 11.001H16.4006C16.8113 11.001 17.134 11.3237 17.134 11.7344C17.134 12.1451 16.8113 12.4678 16.4006 12.4678Z" fill="black"/>
</g>
</svg>
