<svg width="23" height="22" viewBox="0 0 23 22" fill="none" xmlns="http://www.w3.org/2000/svg">
<g id="mdi:calendar">
<path id="Vector" d="M20.0556 19.8H2.94444V7.7H20.0556M16.3889 0V2.2H6.61111V0H4.16667V2.2H2.94444C1.58778 2.2 0.5 3.179 0.5 4.4V19.8C0.5 20.3835 0.757539 20.9431 1.21596 21.3556C1.67438 21.7682 2.29614 22 2.94444 22H20.0556C20.7039 22 21.3256 21.7682 21.784 21.3556C22.2425 20.9431 22.5 20.3835 22.5 19.8V4.4C22.5 3.81652 22.2425 3.25695 21.784 2.84437C21.3256 2.43179 20.7039 2.2 20.0556 2.2H18.8333V0M17.6111 12.1H11.5V17.6H17.6111V12.1Z" fill="#201D1D" fill-opacity="0.89"/>
</g>
</svg>
