<svg width="23" height="23" viewBox="0 0 23 23" fill="none" xmlns="http://www.w3.org/2000/svg">
<g id="fluent-mdl2:change-entitlements" clip-path="url(#clip0_460_28925)">
<path id="Vector" d="M1.9003 21.125H11.7352L13.1355 22.5H0.5V0.5H12.6979L18.7039 6.39746V8.75H17.3036V7.375H11.7024V1.875H1.9003V21.125ZM13.1027 2.85254V6H16.3081L13.1027 2.85254ZM3.3006 6H10.2911V7.36426H3.3006V6ZM15.8923 8.75V10.1143H3.3006V8.75H15.8923ZM3.3006 11.5H11.6914V12.8643H3.3006V11.5ZM11.7024 14.25V15.6143H3.3006V14.25H11.7024ZM3.3006 18.3643V17H11.7024L10.3021 18.3643H3.3006ZM16.5706 16.624L14.7874 18.3643H21.5045V19.75H14.7874L16.5706 21.501L15.586 22.4678L12.1072 19.0625L15.586 15.6572L16.5706 16.624ZM19.8197 12.875L18.0365 11.124L19.0211 10.1572L22.5 13.5625L19.0211 16.9678L18.0365 16.001L19.8197 14.25H13.1027V12.875H19.8197Z" fill="#2B2829"/>
</g>
<defs>
<clipPath id="clip0_460_28925">
<rect width="22" height="22" fill="white" transform="translate(0.5 0.5)"/>
</clipPath>
</defs>
</svg>
