<svg width="70" height="70" viewBox="0 0 70 70" fill="none" xmlns="http://www.w3.org/2000/svg">
<g id="Capa 1">
<path id="Vector" d="M43.7605 63.6787L38.1897 47.5563H31.2737L23.52 70H27.5065C28.1573 68.6498 29.1808 67.5096 30.4586 66.7115C31.7364 65.9133 33.2163 65.4897 34.727 65.4897C36.2378 65.4897 37.7176 65.9133 38.9954 66.7115C40.2732 67.5096 41.2967 68.6498 41.9475 70H45.9434L43.7605 63.6787ZM37.3135 61.1034C35.6186 60.6816 33.8447 60.6816 32.1499 61.1034L31.0089 61.3922L33.5755 53.8347H35.9684L38.465 61.3922L37.3135 61.1034Z" fill="#0CB2D6"/>
<path id="Vector_2" d="M61.6196 48.379L46.1683 40.8804L41.2788 45.7227L51.8208 67.0237L54.6395 64.2311C54.1357 62.8206 54.0455 61.2977 54.3793 59.8385C54.713 58.3794 55.4571 57.0436 56.5253 55.9857C57.5936 54.9279 58.9425 54.1912 60.4159 53.8608C61.8894 53.5305 63.4271 53.62 64.8513 54.119L67.677 51.3206L61.6196 48.379ZM55.2216 51.0688C53.7228 51.9587 52.4686 53.2008 51.57 54.6852L50.9703 55.6904L47.3875 48.5511L49.0815 46.8747L56.2413 50.4726L55.2216 51.0688Z" fill="#1C1C34"/>
<path id="Vector_3" d="M48.8505 8.29932L41.2788 23.6015L46.1683 28.4437L67.677 18.0035L64.8571 15.2121C63.4329 15.711 61.8951 15.8003 60.4217 15.4698C58.9484 15.1393 57.5996 14.4024 56.5314 13.3444C55.4632 12.2864 54.7193 10.9506 54.3858 9.4914C54.0522 8.03221 54.1426 6.5093 54.6465 5.09886L51.8208 2.30048L48.8505 8.29932ZM51.5665 14.6355C52.4651 16.1199 53.7193 17.362 55.2181 18.2519L56.232 18.8458L49.0231 22.3941L47.3315 20.7164L50.9645 13.6257L51.5665 14.6355Z" fill="#1C1C34"/>
<path id="Vector_4" d="M25.9709 6.3212L31.5418 22.4437H38.4578L46.2114 0H42.2249C41.5704 1.34606 40.5465 2.4825 39.2705 3.27937C37.9944 4.07623 36.5176 4.50134 35.0091 4.50607C33.499 4.5028 32.0204 4.0784 30.7425 3.28147C29.4647 2.48453 28.4394 1.3473 27.7839 0L23.7881 0L25.9709 6.3212ZM32.4179 8.89659C34.1128 9.31831 35.8867 9.31831 37.5816 8.89659L38.7226 8.60774L36.1559 16.1652H33.7631L31.2664 8.60774L32.4179 8.89659Z" fill="#1C1C34"/>
<path id="Vector_5" d="M63.6171 25.7205L47.3374 31.2375V38.0867L69.9999 45.7655V41.8175C68.6366 41.173 67.4853 40.1594 66.6794 38.8939C65.8734 37.6285 65.4457 36.1629 65.4457 34.6667C65.4457 33.1706 65.8734 31.705 66.6794 30.4396C67.4853 29.1741 68.6366 28.1605 69.9999 27.516V23.5587L63.6171 25.7205ZM61.0166 32.1052C60.5907 33.7837 60.5907 35.5405 61.0166 37.219L61.3082 38.349L53.6771 35.8071V33.4374L61.3082 30.9648L61.0166 32.1052Z" fill="#1C1C34"/>
<path id="Vector_6" d="M21.1493 61.0249L28.7209 45.7227L23.8314 40.8804L2.32275 51.3206L5.14259 54.1121C6.56684 53.6132 8.1046 53.5239 9.57799 53.8544C11.0514 54.1849 12.4002 54.9218 13.4683 55.9797C14.5365 57.0377 15.2804 58.3736 15.614 59.8328C15.9475 61.292 15.8572 62.8149 15.3533 64.2253L18.1789 67.0237L21.1493 61.0249ZM18.4333 54.6886C17.5346 53.2043 16.2804 51.9622 14.7816 51.0722L13.7666 50.4784L20.9754 46.9301L22.6683 48.6078L19.0353 55.6985L18.4333 54.6886Z" fill="#1C1C34"/>
<path id="Vector_7" d="M8.38009 20.9452L23.8314 28.4437L28.7209 23.6015L18.1789 2.30048L15.3603 5.09308C15.864 6.50358 15.9542 8.0265 15.6205 9.48565C15.2867 10.9448 14.5427 12.2806 13.4744 13.3384C12.4061 14.3963 11.0572 15.133 9.58379 15.4634C8.11037 15.7937 6.57262 15.7042 5.14842 15.2052L2.32275 18.0035L8.38009 20.9452ZM14.7781 18.2554C16.2769 17.3655 17.5311 16.1234 18.4298 14.639L19.0294 13.635L22.6123 20.7742L20.9183 22.4495L13.7584 18.8516L14.7781 18.2554Z" fill="#1C1C34"/>
<path id="Vector_8" d="M6.38283 43.6038L22.6625 38.0867V31.2375L0 23.5587V27.5067C1.35918 28.1549 2.50671 29.1689 3.31134 30.4326C4.11598 31.6964 4.54523 33.1589 4.55 34.6529C4.5467 36.1484 4.11816 37.6127 3.31346 38.8782C2.50876 40.1437 1.36043 41.1592 0 41.8083L0 45.7655L6.38283 43.6038ZM8.98334 37.219C9.40916 35.5405 9.40916 33.7837 8.98334 32.1052L8.69167 30.9752L16.3228 33.5171V35.8869L8.69167 38.3594L8.98334 37.219Z" fill="#1C1C34"/>
<g id="Group 3">
<path id="Subtract" fill-rule="evenodd" clip-rule="evenodd" d="M33.0313 40.6L31.5 44.8981H37.3647L35.9006 40.6H33.0313ZM37.38 44.8981V44.8785L37.3648 44.8981H37.38ZM37.8 44.3436H37.7958L37.8 44.3382V44.3436Z" fill="#0CB2D6"/>
</g>
</g>
</svg>
