<svg width="28" height="27" viewBox="0 0 28 27" fill="none" xmlns="http://www.w3.org/2000/svg">
<g id="vuesax/linear/cards">
<path id="Vector" d="M2.75 14.1863H21.875" stroke="#292D32" stroke-width="1.5" stroke-miterlimit="10" stroke-linecap="round" stroke-linejoin="round"/>
<path id="Vector_2" d="M21.875 11.565V19.6088C21.8413 22.815 20.9637 23.625 17.6225 23.625H7.00253C3.60503 23.625 2.75 22.7813 2.75 19.4288V11.565C2.75 8.52752 3.45875 7.54877 6.125 7.39127C6.395 7.38002 6.68753 7.36877 7.00253 7.36877H17.6225C21.02 7.36877 21.875 8.21252 21.875 11.565Z" stroke="#292D32" stroke-width="1.5" stroke-linecap="round" stroke-linejoin="round"/>
<path id="Vector_3" d="M25.25 7.57125V15.435C25.25 18.4725 24.5412 19.4512 21.875 19.6087V11.565C21.875 8.2125 21.02 7.36875 17.6225 7.36875H7.00253C6.68753 7.36875 6.395 7.38 6.125 7.39125C6.15875 4.185 7.03628 3.375 10.3775 3.375H20.9975C24.395 3.375 25.25 4.21875 25.25 7.57125Z" stroke="#292D32" stroke-width="1.5" stroke-linecap="round" stroke-linejoin="round"/>
<path id="Vector_4" d="M6.40625 20.0363H8.34122" stroke="#292D32" stroke-width="1.5" stroke-miterlimit="10" stroke-linecap="round" stroke-linejoin="round"/>
<path id="Vector_5" d="M10.7488 20.0363H14.6188" stroke="#292D32" stroke-width="1.5" stroke-miterlimit="10" stroke-linecap="round" stroke-linejoin="round"/>
</g>
</svg>
