<svg width="23" height="22" viewBox="0 0 23 22" fill="none" xmlns="http://www.w3.org/2000/svg">
<g id="file manager" clip-path="url(#clip0_460_28936)">
<path id="Vector" d="M19.0625 8.085C18.6775 8.085 18.375 7.7825 18.375 7.3975V2.0625C18.375 1.6775 18.0725 1.375 17.6875 1.375H5.3125C4.9275 1.375 4.625 1.6775 4.625 2.0625V4.8125C4.625 5.1975 4.3225 5.5 3.9375 5.5C3.5525 5.5 3.25 5.1975 3.25 4.8125V2.0625C3.25 0.92125 4.17125 0 5.3125 0H17.6875C18.8287 0 19.75 0.92125 19.75 2.0625V7.3975C19.75 7.7825 19.4475 8.085 19.0625 8.085Z" fill="black"/>
<path id="Vector_2" d="M20.4375 22H2.5625C1.42125 22 0.5 21.0787 0.5 19.9375V6.1875C0.5 5.04625 1.42125 4.125 2.5625 4.125H9.09375C9.31375 4.125 9.52 4.22125 9.64375 4.4L11.5 6.875H20.4375C21.5787 6.875 22.5 7.79625 22.5 8.9375V19.9375C22.5 21.0787 21.5787 22 20.4375 22ZM2.5625 5.5C2.1775 5.5 1.875 5.8025 1.875 6.1875V19.9375C1.875 20.3225 2.1775 20.625 2.5625 20.625H20.4375C20.8225 20.625 21.125 20.3225 21.125 19.9375V8.9375C21.125 8.5525 20.8225 8.25 20.4375 8.25H11.1562C11.0491 8.25224 10.9431 8.22838 10.8473 8.18047C10.7514 8.13255 10.6687 8.06204 10.6062 7.975L8.75 5.5H2.5625Z" fill="black"/>
<path id="Vector_3" d="M8.0625 17.875H5.3125C4.9275 17.875 4.625 17.5725 4.625 17.1875C4.625 16.8025 4.9275 16.5 5.3125 16.5H8.0625C8.4475 16.5 8.75 16.8025 8.75 17.1875C8.75 17.5725 8.4475 17.875 8.0625 17.875Z" fill="black"/>
</g>
<defs>
<clipPath id="clip0_460_28936">
<rect width="22" height="22" fill="white" transform="translate(0.5)"/>
</clipPath>
</defs>
</svg>
