<svg width="27" height="27" viewBox="0 0 27 27" fill="none" xmlns="http://www.w3.org/2000/svg">
<g id="hugeicons:zoom">
<path id="Vector" d="M2.25061 11.25V9C2.25061 7.93912 2.25061 7.40925 2.58024 7.07963C2.90986 6.75 3.43974 6.75 4.50061 6.75H7.87561C12.118 6.75 14.2397 6.75 15.5571 8.0685C16.8745 9.387 16.8756 11.5076 16.8756 15.75V18C16.8756 19.0609 16.8756 19.5908 16.546 19.9204C16.2164 20.25 15.6865 20.25 14.6256 20.25H11.2506C7.00824 20.25 4.88649 20.25 3.56911 18.9315C2.25174 17.613 2.25061 15.4924 2.25061 11.25ZM20.1381 10.2037L20.9256 9.44438C22.5569 7.87163 23.3714 7.08525 24.061 7.36988C24.7506 7.6545 24.7506 8.77838 24.7506 11.025V15.975C24.7506 18.2216 24.7506 19.3455 24.061 19.6301C23.3714 19.9147 22.5557 19.1284 20.9256 17.5556L20.1381 16.7963C19.1391 15.8333 19.1256 15.8006 19.1256 14.4259V12.5741C19.1256 11.1994 19.1391 11.1679 20.1381 10.2037Z" stroke="black" stroke-width="1.5" stroke-linecap="round" stroke-linejoin="round"/>
</g>
</svg>
