<svg width="23" height="22" viewBox="0 0 23 22" fill="none" xmlns="http://www.w3.org/2000/svg">
<g id="streamline:customer-support-1-solid">
<path id="Vector" fill-rule="evenodd" clip-rule="evenodd" d="M11.4805 2.92918C10.8534 2.91948 10.2303 3.01585 9.64677 3.21279C9.06322 3.40973 8.53072 3.70337 8.07972 4.07691C7.62873 4.45044 7.2681 4.89654 7.01848 5.38967C6.76887 5.88279 6.63515 6.41327 6.625 6.95074V12.5717C6.625 12.9127 6.46696 13.2397 6.18566 13.4808C5.90436 13.7219 5.52282 13.8573 5.125 13.8573H3.25C2.65326 13.8573 2.08097 13.6542 1.65901 13.2925C1.23705 12.9308 1 12.4403 1 11.9288L1 9.35751C1 8.84604 1.23705 8.35552 1.65901 7.99385C2.08097 7.63219 2.65326 7.42901 3.25 7.42901H4.375V6.9276C4.38869 6.13742 4.58385 5.35729 4.94934 4.63177C5.31483 3.90625 5.84349 3.24954 6.50513 2.69916C7.16677 2.14878 7.94842 1.7155 8.80545 1.42407C9.66248 1.13264 10.5781 0.988776 11.5 1.00068C12.4219 0.988776 13.3375 1.13264 14.1945 1.42407C15.0516 1.7155 15.8332 2.14878 16.4949 2.69916C17.1565 3.24954 17.6852 3.90625 18.0507 4.63177C18.4162 5.35729 18.6113 6.13742 18.625 6.9276V7.42901H19.75C20.3467 7.42901 20.919 7.63219 21.341 7.99385C21.7629 8.35552 22 8.84604 22 9.35751V11.9288C22 12.4403 21.7629 12.9308 21.341 13.2925C20.919 13.6542 20.3467 13.8573 19.75 13.8573H18.625V14.5002C18.6252 15.369 18.2522 16.2074 17.5771 16.8555C16.902 17.5036 15.9722 17.916 14.965 18.0139C14.7694 18.3132 14.4842 18.5624 14.1388 18.7357C13.7934 18.9091 13.4003 19.0003 13 19H10.75C10.1533 19 9.58097 18.7968 9.15901 18.4352C8.73705 18.0735 8.5 17.583 8.5 17.0715C8.5 16.56 8.73705 16.0695 9.15901 15.7078C9.58097 15.3462 10.1533 15.143 10.75 15.143H13C13.813 15.143 14.5255 15.512 14.92 16.0661C15.3334 15.9847 15.7024 15.7855 15.9667 15.501C16.231 15.2166 16.3749 14.8638 16.375 14.5002V6.94946C16.3647 6.40922 16.2296 5.87609 15.9774 5.38088C15.7253 4.88568 15.3611 4.43822 14.906 4.06438C14.4509 3.69054 13.9138 3.39773 13.3258 3.20288C12.7379 3.00803 12.1107 2.91501 11.4805 2.92918Z" fill="black"/>
</g>
</svg>
