<svg width="28" height="28" viewBox="0 0 28 28" fill="none" xmlns="http://www.w3.org/2000/svg">
<g id="material-symbols:change-circle-outline-rounded">
<path id="Vector" d="M14.0882 18.0542C13.5243 18.0737 12.9849 17.9815 12.47 17.7777C11.9551 17.5739 11.5028 17.2772 11.1132 16.8875C10.7235 16.4979 10.4268 16.0604 10.223 15.575C10.0192 15.0897 9.91732 14.5744 9.91732 14.0292C9.91732 13.8348 9.92704 13.6454 9.94649 13.461C9.96593 13.2767 10.0048 13.0967 10.0632 12.9209C10.1409 12.6875 10.1363 12.4542 10.0492 12.2209C9.96204 11.9875 9.81115 11.8223 9.59649 11.725C9.36315 11.6278 9.13487 11.6278 8.91165 11.725C8.68843 11.8223 8.53754 11.9875 8.45899 12.2209C8.36176 12.5125 8.28904 12.8042 8.24082 13.0959C8.1926 13.3875 8.1681 13.6889 8.16732 14C8.16732 14.7778 8.31821 15.5218 8.61999 16.2319C8.92176 16.942 9.34449 17.5689 9.88815 18.1125C10.4132 18.657 11.0307 19.075 11.7408 19.3667C12.4509 19.6584 13.1848 19.8139 13.9423 19.8334L13.4465 20.3292C13.2715 20.5042 13.184 20.7084 13.184 20.9417C13.184 21.175 13.2715 21.3792 13.4465 21.5542C13.6215 21.7292 13.8257 21.8167 14.059 21.8167C14.2923 21.8167 14.4965 21.7292 14.6715 21.5542L16.5382 19.6875C16.7715 19.4542 16.8882 19.182 16.8882 18.8709C16.8882 18.5598 16.7715 18.2875 16.5382 18.0542L14.6715 16.1875C14.4965 16.0125 14.2923 15.925 14.059 15.925C13.8257 15.925 13.6215 16.0125 13.4465 16.1875C13.2715 16.3625 13.184 16.5667 13.184 16.8C13.184 17.0334 13.2715 17.2375 13.4465 17.4125L14.0882 18.0542ZM13.884 9.91671C14.4479 9.91671 14.9923 10.019 15.5173 10.2235C16.0423 10.4281 16.4993 10.7244 16.8882 11.1125C17.277 11.5007 17.5738 11.9382 17.7783 12.425C17.9829 12.9119 18.0848 13.4272 18.084 13.9709C18.084 14.1653 18.0743 14.3547 18.0548 14.539C18.0354 14.7234 17.9965 14.9034 17.9382 15.0792C17.8604 15.3125 17.8654 15.5505 17.9533 15.7932C18.0412 16.0359 18.1917 16.2062 18.4048 16.3042C18.6382 16.4014 18.8668 16.4014 19.0908 16.3042C19.3148 16.207 19.4653 16.0417 19.5423 15.8084C19.6395 15.5167 19.7127 15.22 19.7617 14.9182C19.8107 14.6164 19.8348 14.3104 19.834 14C19.834 13.2223 19.6928 12.4787 19.4105 11.7694C19.1282 11.06 18.7054 10.423 18.1423 9.85837C17.5979 9.31393 16.971 8.90093 16.2617 8.61937C15.5523 8.33782 14.8181 8.19665 14.059 8.19587L14.584 7.67087C14.7395 7.49587 14.8173 7.29171 14.8173 7.05837C14.8173 6.82504 14.7298 6.62087 14.5548 6.44587C14.3798 6.27087 14.1757 6.18337 13.9423 6.18337C13.709 6.18337 13.5048 6.27087 13.3298 6.44587L11.4632 8.31254C11.2298 8.54587 11.1132 8.8181 11.1132 9.12921C11.1132 9.44032 11.2298 9.71254 11.4632 9.94587L13.3298 11.8125C13.5048 11.9875 13.709 12.075 13.9423 12.075C14.1757 12.075 14.3798 11.9875 14.5548 11.8125C14.7298 11.6375 14.8173 11.4334 14.8173 11.2C14.8173 10.9667 14.7298 10.7625 14.5548 10.5875L13.884 9.91671ZM14.0007 25.6667C12.3868 25.6667 10.8701 25.3603 9.45065 24.7474C8.03121 24.1345 6.79649 23.3034 5.74649 22.2542C4.69649 21.205 3.86543 19.9703 3.25332 18.55C2.64121 17.1298 2.33476 15.6132 2.33399 14C2.33321 12.3869 2.63965 10.8703 3.25332 9.45004C3.86699 8.02982 4.69804 6.7951 5.74649 5.74587C6.79493 4.69665 8.02965 3.8656 9.45065 3.25271C10.8717 2.63982 12.3883 2.33337 14.0007 2.33337C15.613 2.33337 17.1297 2.63982 18.5507 3.25271C19.9717 3.8656 21.2064 4.69665 22.2548 5.74587C23.3033 6.7951 24.1347 8.02982 24.7492 9.45004C25.3636 10.8703 25.6697 12.3869 25.6673 14C25.665 15.6132 25.3585 17.1298 24.748 18.55C24.1374 19.9703 23.3064 21.205 22.2548 22.2542C21.2033 23.3034 19.9685 24.1349 18.5507 24.7485C17.1328 25.3622 15.6161 25.6683 14.0007 25.6667ZM14.0007 23.3334C16.6062 23.3334 18.8132 22.4292 20.6215 20.6209C22.4298 18.8125 23.334 16.6056 23.334 14C23.334 11.3945 22.4298 9.18754 20.6215 7.37921C18.8132 5.57087 16.6062 4.66671 14.0007 4.66671C11.3951 4.66671 9.18815 5.57087 7.37982 7.37921C5.57149 9.18754 4.66732 11.3945 4.66732 14C4.66732 16.6056 5.57149 18.8125 7.37982 20.6209C9.18815 22.4292 11.3951 23.3334 14.0007 23.3334Z" fill="black"/>
</g>
</svg>
