<svg width="28" height="28" viewBox="0 0 28 28" fill="none" xmlns="http://www.w3.org/2000/svg">
<g id="proicons:settings">
<path id="Vector" d="M8.22513 7.53903C8.54264 7.6508 8.88058 7.69254 9.21575 7.6614C9.55092 7.63026 9.87538 7.52696 10.1669 7.35861C10.4583 7.19026 10.71 6.96083 10.9044 6.68608C11.0989 6.41132 11.2316 6.09774 11.2935 5.76687L11.6668 3.7602C13.2019 3.4105 14.796 3.4105 16.3311 3.7602L16.7068 5.76687C16.7687 6.09774 16.9014 6.41132 17.0958 6.68608C17.2903 6.96083 17.5419 7.19026 17.8334 7.35861C18.1249 7.52696 18.4493 7.63026 18.7845 7.6614C19.1197 7.69254 19.4576 7.6508 19.7751 7.53903L21.699 6.86237C22.7699 8.01594 23.5677 9.39551 24.0335 10.899L22.4818 12.229C22.2262 12.4481 22.0211 12.7198 21.8805 13.0256C21.7398 13.3314 21.667 13.664 21.667 14.0006C21.667 14.3372 21.7398 14.6698 21.8805 14.9756C22.0211 15.2814 22.2262 15.5531 22.4818 15.7722L24.0335 17.101C23.5677 18.6046 22.7699 19.9841 21.699 21.1377L19.774 20.461C19.4564 20.3493 19.1185 20.3075 18.7833 20.3387C18.4482 20.3698 18.1237 20.4731 17.8322 20.6415C17.5407 20.8098 17.2891 21.0392 17.0947 21.314C16.9002 21.5887 16.7675 21.9023 16.7056 22.2332L16.3335 24.2399C14.7983 24.5896 13.2042 24.5896 11.6691 24.2399L11.2935 22.2332C11.2316 21.9023 11.0989 21.5887 10.9044 21.314C10.71 21.0392 10.4583 20.8098 10.1669 20.6415C9.87538 20.4731 9.55092 20.3698 9.21575 20.3387C8.88058 20.3075 8.54264 20.3493 8.22513 20.461L6.3013 21.1377C5.23041 19.9841 4.43257 18.6046 3.9668 17.101L5.51846 15.771C5.77382 15.552 5.97879 15.2803 6.11931 14.9746C6.25983 14.6689 6.33259 14.3365 6.33259 14C6.33259 13.6636 6.25983 13.3311 6.11931 13.0255C5.97879 12.7198 5.77382 12.4481 5.51846 12.229L3.9668 10.899C4.43222 9.39561 5.22966 8.01605 6.30013 6.86237L8.22513 7.53903ZM14.0001 10.5C14.9284 10.5 15.8186 10.8688 16.475 11.5252C17.1314 12.1815 17.5001 13.0718 17.5001 14C17.5001 14.9283 17.1314 15.8185 16.475 16.4749C15.8186 17.1313 14.9284 17.5 14.0001 17.5C13.0719 17.5 12.1816 17.1313 11.5253 16.4749C10.8689 15.8185 10.5001 14.9283 10.5001 14C10.5001 13.0718 10.8689 12.1815 11.5253 11.5252C12.1816 10.8688 13.0719 10.5 14.0001 10.5Z" stroke="black" stroke-width="1.5" stroke-linecap="round" stroke-linejoin="round"/>
</g>
</svg>
