<svg width="24" height="24" viewBox="0 0 24 24" fill="none" xmlns="http://www.w3.org/2000/svg">
<g id="streamline:customer-support-1-solid" clip-path="url(#clip0_841_10313)">
<path id="Vector" fill-rule="evenodd" clip-rule="evenodd" d="M14.3733 2.57224C13.5133 2.5593 12.6587 2.6878 11.8584 2.95039C11.0581 3.21298 10.3278 3.6045 9.70933 4.10254C9.09083 4.60059 8.59626 5.19538 8.25392 5.85289C7.91159 6.51039 7.72821 7.2177 7.71429 7.93432V15.4289C7.71429 15.8835 7.49755 16.3196 7.11176 16.641C6.72597 16.9625 6.20273 17.1431 5.65714 17.1431H3.08571C2.26733 17.1431 1.48247 16.8722 0.903785 16.39C0.325101 15.9078 0 15.2537 0 14.5718L0 11.1433C0 10.4614 0.325101 9.80736 0.903785 9.32514C1.48247 8.84292 2.26733 8.57201 3.08571 8.57201H4.62857V7.90347C4.64734 6.8499 4.91499 5.80972 5.41624 4.84236C5.91748 3.875 6.6425 2.99939 7.54989 2.26555C8.45728 1.5317 9.52926 0.953999 10.7046 0.565429C11.88 0.176859 13.1357 -0.0149656 14.4 0.000910789C15.6643 -0.0149656 16.92 0.176859 18.0954 0.565429C19.2707 0.953999 20.3427 1.5317 21.2501 2.26555C22.1575 2.99939 22.8825 3.875 23.3838 4.84236C23.885 5.80972 24.1527 6.8499 24.1714 7.90347V8.57201H25.7143C26.5327 8.57201 27.3175 8.84292 27.8962 9.32514C28.4749 9.80736 28.8 10.4614 28.8 11.1433V14.5718C28.8 15.2537 28.4749 15.9078 27.8962 16.39C27.3175 16.8722 26.5327 17.1431 25.7143 17.1431H24.1714V18.0002C24.1717 19.1586 23.6601 20.2766 22.7343 21.1407C21.8085 22.0048 20.5333 22.5546 19.152 22.6852C18.8838 23.0843 18.4926 23.4165 18.0189 23.6476C17.5452 23.8788 17.0061 24.0004 16.4571 24H13.3714C12.553 24 11.7682 23.7291 11.1895 23.2469C10.6108 22.7647 10.2857 22.1106 10.2857 21.4287C10.2857 20.7467 10.6108 20.0927 11.1895 19.6105C11.7682 19.1282 12.553 18.8573 13.3714 18.8573H16.4571C17.5721 18.8573 18.5493 19.3493 19.0903 20.0881C19.6573 19.9796 20.1633 19.7139 20.5258 19.3347C20.8882 18.9555 21.0856 18.485 21.0857 18.0002V7.93261C21.0716 7.21229 20.8863 6.50145 20.5405 5.84118C20.1947 5.18091 19.6953 4.5843 19.0711 4.08584C18.4469 3.58739 17.7103 3.19698 16.904 2.93718C16.0976 2.67738 15.2375 2.55334 14.3733 2.57224Z" fill="black"/>
</g>
<defs>
<clipPath id="clip0_841_10313">
<rect width="24" height="24" fill="white"/>
</clipPath>
</defs>
</svg>
