<svg width="28" height="28" viewBox="0 0 28 28" fill="none" xmlns="http://www.w3.org/2000/svg">
<g id="streamline:customer-support-1-solid">
<path id="Vector" fill-rule="evenodd" clip-rule="evenodd" d="M14.4805 6.25071C13.8534 6.23939 13.2303 6.35183 12.6468 6.58159C12.0632 6.81136 11.5307 7.15394 11.0797 7.58973C10.6287 8.02552 10.2681 8.54596 10.0185 9.12128C9.76887 9.69659 9.63515 10.3155 9.625 10.9425V17.5003C9.625 17.8981 9.46696 18.2796 9.18566 18.5609C8.90436 18.8422 8.52282 19.0002 8.125 19.0002H6.25C5.65326 19.0002 5.08097 18.7632 4.65901 18.3412C4.23705 17.9193 4 17.347 4 16.7503V13.7504C4 13.1537 4.23705 12.5814 4.65901 12.1595C5.08097 11.7376 5.65326 11.5005 6.25 11.5005H7.375V10.9155C7.38869 9.99366 7.58385 9.08351 7.94934 8.23707C8.31483 7.39062 8.84349 6.62447 9.50513 5.98235C10.1668 5.34024 10.9484 4.83475 11.8055 4.49475C12.6625 4.15475 13.5781 3.98691 14.5 4.0008C15.4219 3.98691 16.3375 4.15475 17.1945 4.49475C18.0516 4.83475 18.8332 5.34024 19.4949 5.98235C20.1565 6.62447 20.6852 7.39062 21.0507 8.23707C21.4162 9.08351 21.6113 9.99366 21.625 10.9155V11.5005H22.75C23.3467 11.5005 23.919 11.7376 24.341 12.1595C24.7629 12.5814 25 13.1537 25 13.7504V16.7503C25 17.347 24.7629 17.9193 24.341 18.3412C23.919 18.7632 23.3467 19.0002 22.75 19.0002H21.625V19.7502C21.6252 20.7638 21.2522 21.742 20.5771 22.4981C19.902 23.2542 18.9722 23.7353 17.965 23.8495C17.7694 24.1987 17.4842 24.4895 17.1388 24.6917C16.7934 24.8939 16.4003 25.0003 16 25H13.75C13.1533 25 12.581 24.763 12.159 24.341C11.7371 23.9191 11.5 23.3468 11.5 22.7501C11.5 22.1534 11.7371 21.5811 12.159 21.1592C12.581 20.7372 13.1533 20.5002 13.75 20.5002H16C16.813 20.5002 17.5255 20.9307 17.92 21.5771C18.3334 21.4821 18.7024 21.2497 18.9667 20.9179C19.231 20.586 19.3749 20.1744 19.375 19.7502V10.941C19.3647 10.3108 19.2296 9.68877 18.9774 9.11103C18.7253 8.53329 18.3611 8.01126 17.906 7.57511C17.4509 7.13897 16.9138 6.79736 16.3258 6.57003C15.7379 6.34271 15.1107 6.23417 14.4805 6.25071Z" fill="black"/>
</g>
</svg>
