<svg width="24" height="25" viewBox="0 0 24 25" fill="none" xmlns="http://www.w3.org/2000/svg">
<g id="material-symbols:manage-accounts-outline-rounded">
<path id="Vector" d="M10 12.5C8.9 12.5 7.95833 12.1083 7.175 11.325C6.39167 10.5417 6 9.6 6 8.5C6 7.4 6.39167 6.45833 7.175 5.675C7.95833 4.89167 8.9 4.5 10 4.5C11.1 4.5 12.0417 4.89167 12.825 5.675C13.6083 6.45833 14 7.4 14 8.5C14 9.6 13.6083 10.5417 12.825 11.325C12.0417 12.1083 11.1 12.5 10 12.5ZM2 18.5V17.7C2 17.15 2.14167 16.6333 2.425 16.15C2.70833 15.6667 3.1 15.3 3.6 15.05C4.56667 14.5667 5.56667 14.1873 6.6 13.912C7.63333 13.6367 8.69167 13.4993 9.775 13.5C10.0583 13.5 10.296 13.6 10.488 13.8C10.68 14 10.7757 14.2417 10.775 14.525C10.7743 14.8083 10.6783 15.046 10.487 15.238C10.2957 15.43 10.0583 15.5257 9.775 15.525C8.84167 15.525 7.93733 15.6417 7.062 15.875C6.18667 16.1083 5.33267 16.4333 4.5 16.85C4.33333 16.9333 4.20833 17.05 4.125 17.2C4.04167 17.35 4 17.5167 4 17.7V18.5H9.775C10.0583 18.5 10.296 18.596 10.488 18.788C10.68 18.98 10.7757 19.2173 10.775 19.5C10.7743 19.7827 10.6783 20.0203 10.487 20.213C10.2957 20.4057 10.0583 20.5013 9.775 20.5H4C3.45 20.5 2.97933 20.3043 2.588 19.913C2.19667 19.5217 2.00067 19.0507 2 18.5ZM15.85 20.7L15.7 20C15.5 19.9167 15.3127 19.8293 15.138 19.738C14.9633 19.6467 14.784 19.534 14.6 19.4L13.875 19.625C13.6583 19.6917 13.446 19.6833 13.238 19.6C13.03 19.5167 12.8673 19.3833 12.75 19.2L12.55 18.85C12.4333 18.65 12.3917 18.4333 12.425 18.2C12.4583 17.9667 12.5667 17.775 12.75 17.625L13.3 17.15C13.2667 16.9167 13.25 16.7 13.25 16.5C13.25 16.3 13.2667 16.0833 13.3 15.85L12.75 15.375C12.5667 15.225 12.4583 15.0373 12.425 14.812C12.3917 14.5867 12.4333 14.3743 12.55 14.175L12.775 13.8C12.8917 13.6167 13.05 13.4833 13.25 13.4C13.45 13.3167 13.6583 13.3083 13.875 13.375L14.6 13.6C14.7833 13.4667 14.9627 13.354 15.138 13.262C15.3133 13.17 15.5007 13.0827 15.7 13L15.85 12.275C15.9 12.0417 16.0127 11.8543 16.188 11.713C16.3633 11.5717 16.5673 11.5007 16.8 11.5H17.2C17.4333 11.5 17.6377 11.575 17.813 11.725C17.9883 11.875 18.1007 12.0667 18.15 12.3L18.3 13C18.5 13.0833 18.6873 13.175 18.862 13.275C19.0367 13.375 19.216 13.5 19.4 13.65L20.075 13.425C20.3083 13.3417 20.5333 13.3417 20.75 13.425C20.9667 13.5083 21.1333 13.65 21.25 13.85L21.45 14.2C21.5667 14.4 21.6083 14.6167 21.575 14.85C21.5417 15.0833 21.4333 15.275 21.25 15.425L20.7 15.9C20.7333 16.1 20.75 16.3083 20.75 16.525C20.75 16.7417 20.7333 16.95 20.7 17.15L21.25 17.625C21.4333 17.775 21.5417 17.9627 21.575 18.188C21.6083 18.4133 21.5667 18.6257 21.45 18.825L21.225 19.2C21.1083 19.3833 20.95 19.5167 20.75 19.6C20.55 19.6833 20.3417 19.6917 20.125 19.625L19.4 19.4C19.2167 19.5333 19.0373 19.6457 18.862 19.737C18.6867 19.8283 18.4993 19.916 18.3 20L18.15 20.725C18.1 20.9583 17.9877 21.146 17.813 21.288C17.6383 21.43 17.434 21.5007 17.2 21.5H16.8C16.5667 21.5 16.3627 21.425 16.188 21.275C16.0133 21.125 15.9007 20.9333 15.85 20.7ZM17 18.5C17.55 18.5 18.021 18.3043 18.413 17.913C18.805 17.5217 19.0007 17.0507 19 16.5C18.9993 15.9493 18.8037 15.4787 18.413 15.088C18.0223 14.6973 17.5513 14.5013 17 14.5C16.4487 14.4987 15.978 14.6947 15.588 15.088C15.198 15.4813 15.002 15.952 15 16.5C14.998 17.048 15.194 17.519 15.588 17.913C15.982 18.307 16.4527 18.5027 17 18.5ZM10 10.5C10.55 10.5 11.021 10.3043 11.413 9.913C11.805 9.52167 12.0007 9.05067 12 8.5C11.9993 7.94933 11.8037 7.47867 11.413 7.088C11.0223 6.69733 10.5513 6.50133 10 6.5C9.44867 6.49867 8.978 6.69467 8.588 7.088C8.198 7.48133 8.002 7.952 8 8.5C7.998 9.048 8.194 9.519 8.588 9.913C8.982 10.307 9.45267 10.5027 10 10.5Z" fill="black"/>
</g>
</svg>
