<svg width="22" height="23" viewBox="0 0 22 23" fill="none" xmlns="http://www.w3.org/2000/svg">
<g id="carbon:search">
<path id="Vector" d="M19.9367 19.4655L14.7447 14.2735C15.9924 12.7757 16.6145 10.8545 16.4818 8.9096C16.349 6.96471 15.4716 5.14588 14.0319 3.83146C12.5923 2.51705 10.7013 1.80826 8.75241 1.85254C6.8035 1.89683 4.94669 2.69077 3.56824 4.06922C2.1898 5.44766 1.39585 7.30448 1.35157 9.25339C1.30728 11.2023 2.01607 13.0933 3.33049 14.5329C4.6449 15.9725 6.46374 16.85 8.40863 16.9828C10.3535 17.1155 12.2747 16.4933 13.7726 15.2457L18.9646 20.4377L19.9367 19.4655ZM2.74919 9.43767C2.74919 8.2139 3.11208 7.01761 3.79198 6.00008C4.47187 4.98255 5.43822 4.18948 6.56884 3.72117C7.69946 3.25285 8.94356 3.13032 10.1438 3.36906C11.3441 3.60781 12.4466 4.19711 13.3119 5.06245C14.1773 5.92778 14.7666 7.03029 15.0053 8.23055C15.244 9.43081 15.1215 10.6749 14.6532 11.8055C14.1849 12.9361 13.3918 13.9025 12.3743 14.5824C11.3568 15.2623 10.1605 15.6252 8.93669 15.6252C7.29623 15.6234 5.72347 14.9709 4.56348 13.8109C3.40349 12.6509 2.75101 11.0781 2.74919 9.43767Z" fill="black"/>
</g>
</svg>
