<svg width="20" height="20" viewBox="0 0 20 20" fill="none" xmlns="http://www.w3.org/2000/svg">
<g id="mdi:password">
<path id="Vector" d="M9.99967 14.1667C10.4417 14.1667 10.8656 13.9911 11.1782 13.6786C11.4907 13.366 11.6663 12.9421 11.6663 12.5C11.6663 12.058 11.4907 11.6341 11.1782 11.3215C10.8656 11.009 10.4417 10.8334 9.99967 10.8334C9.55765 10.8334 9.13372 11.009 8.82116 11.3215C8.5086 11.6341 8.33301 12.058 8.33301 12.5C8.33301 12.9421 8.5086 13.366 8.82116 13.6786C9.13372 13.9911 9.55765 14.1667 9.99967 14.1667ZM14.9997 6.66671C15.4417 6.66671 15.8656 6.8423 16.1782 7.15486C16.4907 7.46742 16.6663 7.89135 16.6663 8.33337V16.6667C16.6663 17.1087 16.4907 17.5327 16.1782 17.8452C15.8656 18.1578 15.4417 18.3334 14.9997 18.3334H4.99967C4.55765 18.3334 4.13372 18.1578 3.82116 17.8452C3.5086 17.5327 3.33301 17.1087 3.33301 16.6667V8.33337C3.33301 7.89135 3.5086 7.46742 3.82116 7.15486C4.13372 6.8423 4.55765 6.66671 4.99967 6.66671H5.83301V5.00004C5.83301 3.89497 6.27199 2.83516 7.0534 2.05376C7.8348 1.27236 8.89461 0.833374 9.99967 0.833374C10.5468 0.833374 11.0887 0.941148 11.5942 1.15054C12.0997 1.35994 12.559 1.66685 12.946 2.05376C13.3329 2.44067 13.6398 2.9 13.8492 3.40553C14.0586 3.91105 14.1663 4.45287 14.1663 5.00004V6.66671H14.9997ZM9.99967 2.50004C9.33663 2.50004 8.70075 2.76343 8.23191 3.23227C7.76307 3.70111 7.49967 4.337 7.49967 5.00004V6.66671H12.4997V5.00004C12.4997 4.337 12.2363 3.70111 11.7674 3.23227C11.2986 2.76343 10.6627 2.50004 9.99967 2.50004Z" fill="black"/>
</g>
</svg>
