<svg width="32" height="30" viewBox="0 0 32 30" fill="none" xmlns="http://www.w3.org/2000/svg">
<path d="M21.9289 11.25H19.8752V5C19.8752 4.3125 19.2939 3.75 18.5835 3.75H13.4168C12.7064 3.75 12.1252 4.3125 12.1252 5V11.25H10.0714C8.92183 11.25 8.34058 12.6 9.15433 13.3875L15.0831 19.125C15.5868 19.6125 16.4006 19.6125 16.9043 19.125L22.8331 13.3875C23.6468 12.6 23.0785 11.25 21.9289 11.25ZM6.9585 23.75C6.9585 24.4375 7.53975 25 8.25016 25H23.7502C24.4606 25 25.0418 24.4375 25.0418 23.75C25.0418 23.0625 24.4606 22.5 23.7502 22.5H8.25016C7.53975 22.5 6.9585 23.0625 6.9585 23.75Z" fill="white"/>
</svg>
