<svg width="32" height="32" viewBox="0 0 32 32" fill="none" xmlns="http://www.w3.org/2000/svg">
<g id="material-symbols:mail-outline">
<path id="Vector" d="M5.33366 26.6666C4.60033 26.6666 3.97277 26.4057 3.45099 25.8839C2.92921 25.3621 2.66788 24.7341 2.66699 23.9999V7.99992C2.66699 7.26659 2.92833 6.63903 3.45099 6.11725C3.97366 5.59547 4.60121 5.33414 5.33366 5.33325H26.667C27.4003 5.33325 28.0283 5.59459 28.551 6.11725C29.0737 6.63992 29.3345 7.26747 29.3337 7.99992V23.9999C29.3337 24.7333 29.0728 25.3613 28.551 25.8839C28.0292 26.4066 27.4012 26.6675 26.667 26.6666H5.33366ZM16.0003 17.3333L5.33366 10.6666V23.9999H26.667V10.6666L16.0003 17.3333ZM16.0003 14.6666L26.667 7.99992H5.33366L16.0003 14.6666ZM5.33366 10.6666V7.99992V23.9999V10.6666Z" fill="white"/>
</g>
</svg>
