<svg width="22" height="22" viewBox="0 0 22 22" fill="none" xmlns="http://www.w3.org/2000/svg">
<g id="mdi:contract">
<path id="Vector" d="M5.50033 1.83337C4.48283 1.83337 3.66699 2.64921 3.66699 3.66671V18.3334C3.66699 18.8196 3.86015 19.2859 4.20396 19.6297C4.54778 19.9736 5.0141 20.1667 5.50033 20.1667H9.16699V18.4159L11.0828 16.5H5.50033V14.6667H12.9162L14.7495 12.8334H5.50033V11H16.5828L18.3337 9.24921V7.33337L12.8337 1.83337H5.50033ZM11.917 3.20837L16.9587 8.25004H11.917V3.20837ZM18.4712 11.9167C18.4033 11.9152 18.3359 11.9274 18.2729 11.9526C18.2099 11.9778 18.1526 12.0155 18.1045 12.0634L17.1695 12.9984L19.0853 14.905L20.0203 13.9792C20.2128 13.7775 20.2128 13.4475 20.0203 13.255L18.8287 12.0634C18.7819 12.0162 18.7262 11.9789 18.6648 11.9537C18.6034 11.9285 18.5375 11.9159 18.4712 11.9167ZM16.6287 13.5392L11.0003 19.1767V21.0834H12.907L18.5445 15.4459L16.6287 13.5392Z" fill="black"/>
</g>
</svg>
