<svg width="31" height="30" viewBox="0 0 31 30" fill="none" xmlns="http://www.w3.org/2000/svg">
<g id="vuesax/bulk/trash">
<g id="trash">
<path id="Vector" d="M26.8376 6.5375C24.8251 6.3375 22.8126 6.1875 20.7876 6.075V6.0625L20.5126 4.4375C20.3251 3.2875 20.0501 1.5625 17.1251 1.5625H13.8501C10.9376 1.5625 10.6626 3.2125 10.4626 4.425L10.2001 6.025C9.03757 6.1 7.87507 6.175 6.71257 6.2875L4.16257 6.5375C3.63757 6.5875 3.26257 7.05 3.31257 7.5625C3.36257 8.075 3.81257 8.45 4.33757 8.4L6.88758 8.15C13.4376 7.5 20.0376 7.75 26.6626 8.4125C26.7001 8.4125 26.7251 8.4125 26.7626 8.4125C27.2376 8.4125 27.6501 8.05 27.7001 7.5625C27.7376 7.05 27.3626 6.5875 26.8376 6.5375Z" fill="#FF6262"/>
<path id="Vector_2" opacity="0.3991" d="M24.5374 10.175C24.2374 9.8625 23.8249 9.6875 23.3999 9.6875H7.59993C7.17493 9.6875 6.74993 9.8625 6.46243 10.175C6.17493 10.4875 6.01243 10.9125 6.03743 11.35L6.81243 24.175C6.94993 26.075 7.12493 28.45 11.4874 28.45H19.5124C23.8749 28.45 24.0499 26.0875 24.1874 24.175L24.9624 11.3625C24.9874 10.9125 24.8249 10.4875 24.5374 10.175Z" fill="#FF6262"/>
<path id="Vector (Stroke)" fill-rule="evenodd" clip-rule="evenodd" d="M12.4751 21.25C12.4751 20.7322 12.8948 20.3125 13.4126 20.3125H17.5751C18.0929 20.3125 18.5126 20.7322 18.5126 21.25C18.5126 21.7678 18.0929 22.1875 17.5751 22.1875H13.4126C12.8948 22.1875 12.4751 21.7678 12.4751 21.25Z" fill="#FF6262"/>
<path id="Vector (Stroke)_2" fill-rule="evenodd" clip-rule="evenodd" d="M11.4375 16.25C11.4375 15.7322 11.8572 15.3125 12.375 15.3125H18.625C19.1428 15.3125 19.5625 15.7322 19.5625 16.25C19.5625 16.7678 19.1428 17.1875 18.625 17.1875H12.375C11.8572 17.1875 11.4375 16.7678 11.4375 16.25Z" fill="#FF6262"/>
</g>
</g>
</svg>
