<svg width="40" height="40" viewBox="0 0 40 40" fill="none" xmlns="http://www.w3.org/2000/svg">
<path d="M5.7078 4.29204C5.61482 4.19907 5.50444 4.12531 5.38297 4.075C5.26149 4.02468 5.13129 3.99878 4.9998 3.99878C4.86831 3.99878 4.73811 4.02468 4.61663 4.075C4.49515 4.12531 4.38477 4.19907 4.2918 4.29204C4.19882 4.38502 4.12507 4.4954 4.07475 4.61688C4.02443 4.73835 3.99854 4.86855 3.99854 5.00004C3.99854 5.13153 4.02443 5.26173 4.07475 5.38321C4.12507 5.50469 4.19882 5.61507 4.2918 5.70804L7.2518 8.66604C6.27218 9.17076 5.45048 9.93551 4.87683 10.8764C4.30319 11.8173 3.99975 12.8981 3.9998 14V26C3.9998 27.5913 4.63194 29.1175 5.75716 30.2427C6.88238 31.3679 8.4085 32 9.9998 32H19.9998C21.3694 32.0004 22.6979 31.5322 23.7646 30.6733C24.8313 29.8143 25.5721 28.6162 25.8638 27.278L34.2918 35.708C34.4796 35.8958 34.7342 36.0013 34.9998 36.0013C35.2653 36.0013 35.52 35.8958 35.7078 35.708C35.8956 35.5203 36.0011 35.2656 36.0011 35C36.0011 34.7345 35.8956 34.4798 35.7078 34.292L5.7078 4.29204ZM27.9998 23.76L34.1518 29.91C35.1698 29.63 35.9958 28.714 35.9958 27.496V12.504C35.9955 12.0483 35.8706 11.6012 35.6347 11.2113C35.3987 10.8214 35.0606 10.5034 34.657 10.2917C34.2534 10.08 33.7996 9.98263 33.3446 10.0102C32.8897 10.0378 32.4509 10.1892 32.0758 10.448L27.9998 13.26V23.76ZM12.2418 8.00004L25.9998 21.758V14C25.9998 12.4087 25.3677 10.8826 24.2424 9.7574C23.1172 8.63218 21.5911 8.00004 19.9998 8.00004H12.2418Z" fill="#2B2829"/>
</svg>
